<?xml version="1.0" encoding="utf-8"?>
<!-- Generator: Adobe Illustrator 24.1.0, SVG Export Plug-In . SVG Version: 6.00 Build 0)  -->
<svg version="1.1" id="图层_1" xmlns="http://www.w3.org/2000/svg" xmlns:xlink="http://www.w3.org/1999/xlink" x="0px" y="0px"
	 viewBox="0 0 49 10" style="enable-background:new 0 0 49 10;" xml:space="preserve">
<style type="text/css">
	.st0{fill:#0077C4;}
</style>
<path class="st0" d="M9.5,4.4c1.7,0,3.5,0,5.2,0c0.1,0,0.2-0.1,0.3-0.2c0.9-1.1,1.7-2.3,2.5-3.5c0.1-0.2,0.3-0.4,0.4-0.6
	c-0.1,0-0.1,0-0.2,0c-1,0-2,0-3,0c-0.1,0-0.2,0.1-0.3,0.1C13.8,1.1,13.1,2,12.5,3c0,0.1-0.1,0.1-0.2,0.2c0-0.1,0-0.2,0-0.2
	c0-0.7,0-1.3,0-2c0-0.6-0.3-0.9-0.9-1c-0.5,0-1,0-1.5,0S9.1,0.3,9.1,0.8c0,0.2,0,0.3,0,0.5c0-0.1,0-0.2,0-0.3c0-0.2,0-0.4-0.1-0.6
	C8.9,0.1,8.7,0,8.4,0C5.9,0,3.3,0,0.8,0C0.7,0,0.6,0,0.5,0C0.2,0.1,0,0.3,0,0.7c0,0.5,0,0.9,0,1.4c0,0.3,0,0.3,0.3,0.3
	c1.6,0,3.2,0,4.7,0c0.1,0,0.2,0,0.3,0c-0.6,0.7-1.1,1.3-1.8,2c0.1,0,0.2,0,0.3,0c1,0,2,0,3,0c0.2,0,0.4-0.1,0.6-0.3
	C8,3.5,8.6,2.9,9.2,2.2c0,0.1,0,0.2,0,0.3c0,0.6,0,1.1,0,1.7C9.2,4.3,9.3,4.4,9.5,4.4z M20.7,4.9c-0.1,0-0.2,0-0.3,0
	c-1,0-1.9,0-2.9,0c-0.2,0-0.2,0.1-0.3,0.2c-0.3,0.7-0.6,1.4-0.9,2.1c-0.1,0.2-0.1,0.2-0.3,0c-0.5-0.6-1.1-1.2-1.6-1.9
	c-0.1-0.1-0.1-0.3-0.2-0.4c0,0,0,0,0.1,0h-0.1c-1.6,0-3.2,0-4.8,0C9.3,4.9,9.2,5,9.2,5.1c0,1.3,0,2.6,0,3.9c0,0.6,0.4,1,1,1
	c0.4,0,0.8,0,1.2,0c0.6,0,1-0.4,1-1c0-0.4,0-0.9,0-1.3c0-0.1,0-0.1,0-0.3c0.1,0.1,0.2,0.1,0.2,0.2c0.7,0.7,1.3,1.5,2,2.2
	c0.1,0.1,0.2,0.1,0.3,0.1c1.1,0,2.3,0,3.4,0c0.2,0,0.3-0.1,0.4-0.2c0.1-0.2,0.2-0.4,0.3-0.6c0.4-1,0.9-2.1,1.3-3.1
	C20.5,5.6,20.6,5.3,20.7,4.9z M8.9,7.4c-1.4,0-2.8,0-4.1,0c-0.1,0-0.2,0-0.3,0C5.3,6.6,6,5.8,6.7,5C6.6,5,6.5,5,6.5,5
	C5.4,5,4.4,5,3.3,5C3.1,4.9,2.9,5,2.9,5.1C2,6,1.1,6.9,0.2,7.8c0,0.1-0.1,0.2-0.1,0.3c0,0.5,0,0.9,0,1.4c0,0.3,0.2,0.5,0.5,0.5
	c2.6,0,5.2,0,7.9,0c0.4,0,0.7-0.2,0.7-0.6c0-0.5,0-1.1,0-1.6C9.2,7.4,9.2,7.4,8.9,7.4z M34.1,4.9c-0.1,0-0.2,0.1-0.2,0.2
	c-0.2,0.4-0.3,0.8-0.5,1.2c0,0.1-0.1,0.1-0.1,0.1l-0.1-0.1c-0.2-0.4-0.3-0.8-0.5-1.2c-0.1-0.1-0.1-0.2-0.3-0.2c-0.9,0-1.8,0-2.8,0
	c-0.2,0-0.2,0-0.1,0.2c0.7,1.5,1.3,3.1,2,4.6c0.1,0.2,0.2,0.2,0.4,0.2c1,0,1.9,0,2.9,0c0.2,0,0.3-0.1,0.3-0.2c0.5-1.2,1-2.4,1.6-3.6
	c0.2-0.4,0.4-0.8,0.5-1.2c-0.1,0-0.1,0-0.1,0C36,4.9,35.1,4.9,34.1,4.9z M17.9,4.4c1,0,1.9,0,2.9,0c0.2,0,0.3-0.1,0.3-0.2
	s0.1-0.2,0.2-0.4c0.1,0.2,0.1,0.3,0.2,0.4c0.1,0.2,0.2,0.2,0.4,0.2c0.9,0,1.8,0,2.7,0c0.1,0,0.2,0,0.3,0c0-0.1-0.1-0.2-0.1-0.3
	c-0.2-0.5-0.4-1-0.6-1.5c-0.3-0.6-0.5-1.3-0.8-1.9c-0.2-0.4-0.5-0.7-1-0.6c-0.7,0-1.5,0-2.2,0c-0.5,0-0.5,0-0.7,0.5
	c-0.4,0.9-0.8,1.8-1.1,2.6C18.2,3.6,18.1,4,17.9,4.4C17.7,4.4,17.8,4.4,17.9,4.4z M49,4.9c-0.3-0.3-0.6-0.5-1-0.5
	c-2.4,0-4.9,0-7.3,0c-1,0-2.1,0-3.1,0c-0.2,0-0.2,0-0.2-0.2C37.9,3,38.5,1.7,39,0.5c0-0.1,0.1-0.2,0.1-0.4c-0.1,0-0.2,0-0.3,0
	c-0.7,0-1.5,0-2.2,0c-0.5,0-0.8,0.2-1,0.6c-0.5,1.1-1,2.3-1.4,3.4c0,0.1-0.1,0.2-0.1,0.3h3.2c-0.1,0.2-0.1,0.3-0.2,0.5
	C37.1,4.9,49,4.9,49,4.9z M25.2,5.1C25.1,5,25,4.9,24.8,4.9c-0.5,0-0.9,0-1.4,0l0,0c-0.5,0-1,0-1.4,0c-0.2,0-0.2,0.1-0.1,0.2
	c0.4,1,0.9,2.1,1.3,3.1c0.2,0.5,0.4,1,0.7,1.5C24,9.8,24,10,24.2,10c0.9,0,1.8,0,2.7,0c0.2,0,0.2-0.1,0.1-0.2
	C26.4,8.2,25.8,6.7,25.2,5.1z M28.9,5.1c-0.1-0.2-0.2-0.2-0.4-0.2c-0.9,0-1.7,0-2.6,0c-0.1,0-0.2,0-0.4,0c0,0.1,0.1,0.2,0.1,0.2
	c0.7,1.6,1.3,3.1,2,4.7c0.1,0.1,0.1,0.2,0.3,0.2c0.9,0,1.8,0,2.7,0c0.1,0,0.1,0,0.3,0c-0.1-0.2-0.1-0.4-0.2-0.5
	C30.1,8,29.5,6.6,28.9,5.1z M25.3,4.2c0.1,0.2,0.1,0.2,0.3,0.2c0.9,0,1.8,0,2.7,0c0.1,0,0.1,0,0.2,0c0-0.1,0-0.1,0-0.1
	c-0.4-0.9-0.7-1.8-1.1-2.6c-0.2-0.4-0.4-0.8-0.6-1.3C26.7,0.1,26.5,0,26.2,0c-0.8,0-1.6,0-2.4,0c-0.1,0-0.2,0-0.3,0
	c0,0.1,0,0.2,0.1,0.2C24.2,1.6,24.7,2.9,25.3,4.2z M29,4.2c0.1,0.1,0.1,0.2,0.3,0.2c0.8,0,1.7,0,2.5,0c0.1,0,0.3,0,0.5,0
	c0-0.1,0-0.1-0.1-0.2c-0.3-0.8-0.7-1.5-1-2.3C31,1.4,30.8,1,30.6,0.6C30.4,0.3,30.1,0,29.7,0c-0.7,0-1.5,0-2.2,0
	c-0.3,0-0.3,0-0.2,0.3C27.9,1.6,28.5,2.9,29,4.2z M42.6,6c-0.2,0-0.4,0-0.6,0c-0.1,0-0.2,0.1-0.2,0.2c-0.1,0.4-0.1,0.8-0.2,1.2
	c0,0.2-0.1,0.4-0.1,0.6c-0.1-0.1-0.1-0.1-0.1-0.2c-0.1-0.5-0.2-1.1-0.4-1.6C41,6,40.9,5.9,40.7,6c-0.2,0-0.4,0-0.6,0
	c0,0-0.1,0-0.1,0.1c-0.1,0.4-0.2,0.8-0.3,1.2c-0.1,0.2-0.1,0.5-0.2,0.7l0,0V7.9c-0.1-0.6-0.2-1.2-0.3-1.7C39.2,6,39.1,5.9,39,6
	c-0.2,0-0.4,0-0.6,0c-0.2,0-0.2,0.1-0.2,0.2c0.1,0.2,0.1,0.5,0.1,0.7c0.2,1,0.4,1.9,0.5,2.9c0,0.1,0.1,0.2,0.2,0.2
	c0.2,0,0.4,0,0.7,0c0.1,0,0.2-0.1,0.2-0.2c0.1-0.5,0.2-1.1,0.4-1.6c0-0.2,0.1-0.4,0.2-0.6c0.1,0.1,0.1,0.1,0.1,0.2
	c0.2,0.7,0.3,1.4,0.5,2.1c0,0.1,0.1,0.2,0.2,0.2c0.2,0,0.4,0,0.5,0c0.2,0,0.3-0.1,0.3-0.3c0.1-0.5,0.2-0.9,0.2-1.3
	c0.1-0.7,0.3-1.5,0.4-2.2C42.8,6,42.7,6,42.6,6z M47.8,6.5C47.5,5.8,47.7,6,47,6c-0.1,0-0.3,0-0.4,0c-0.1,0-0.2,0.1-0.2,0.1
	c-0.4,1.2-0.8,2.4-1.1,3.7c0,0.2,0,0.2,0.2,0.2s0.3,0,0.5,0c0.3,0,0.3,0,0.4-0.3c0.1-0.3,0.1-0.3,0.4-0.3c0.1,0,0.2,0,0.4,0
	c0.5,0,0.5-0.1,0.6,0.5c0,0.1,0.1,0.2,0.2,0.2c0.2,0,0.4,0,0.6,0c0.3,0,0.3,0,0.2-0.3C48.4,8.6,48.1,7.6,47.8,6.5z M46.7,8.4
	L46.7,8.4c0-0.5,0.1-0.9,0.2-1.3H47c0.1,0.3,0.1,0.5,0.2,0.8V8c0,0.1,0,0.3,0,0.4C47.1,8.4,46.9,8.4,46.7,8.4z M22.6,9.7
	c-0.4-1-0.8-2-1.2-3c0-0.1-0.1-0.1-0.1-0.2v0.1c-0.5,1.1-0.9,2.2-1.4,3.2c-0.1,0.1,0,0.2,0.1,0.2c0.2,0,0.4,0,0.6,0
	c0.6,0,1.2,0,1.8,0c0.2,0,0.2-0.1,0.2-0.2C22.6,9.7,22.6,9.7,22.6,9.7z M44.5,6.1c0-0.1,0-0.1-0.2-0.1s-0.4,0-0.6,0
	c-0.2,0-0.2,0-0.2,0.2c0,0.6,0,1.2,0,1.8s0,1.2,0,1.8c0,0.2,0.1,0.2,0.2,0.2c0.2,0,0.4,0,0.6,0c0.1,0,0.2,0,0.2-0.2
	C44.5,8.6,44.5,7.4,44.5,6.1z"/>
</svg>
